<?xml version="1.0" encoding="iso-8859-1"?>
<!-- Generator: Adobe Illustrator 16.0.0, SVG Export Plug-In . SVG Version: 6.00 Build 0)  -->
<!DOCTYPE svg PUBLIC "-//W3C//DTD SVG 1.0//EN" "http://www.w3.org/TR/2001/REC-SVG-20010904/DTD/svg10.dtd">
<svg version="1.0" id="Layer_1" xmlns="http://www.w3.org/2000/svg" xmlns:xlink="http://www.w3.org/1999/xlink" x="0px" y="0px"
	 width="310px" height="310px" viewBox="0 0 310 310" style="enable-background:new 0 0 310 310;" xml:space="preserve">
<path style="fill:#FFFFFF;" d="M155.483,0c-85.605,0-155,69.395-155,155c0,85.604,69.396,155,155,155
	c85.604,0,154.999-69.396,154.999-155C310.482,69.394,241.087,0,155.483,0z M155.482,305c-82.842,0-150-67.157-150-150
	s67.158-150,150-150c82.843,0,150,67.157,150,150S238.325,305,155.482,305z"/>
<path style="opacity:0.5;" d="M8.685,185.938c5.614,26.771,18.364,50.916,36.172,70.354c35.192-3.721,72.292-5.717,110.627-5.717
	c38.335,0,75.434,1.995,110.626,5.717c17.808-19.438,30.558-43.583,36.172-70.354c-45.576-6.611-95.066-10.236-146.798-10.236
	S54.261,179.327,8.685,185.938z"/>
<g>
</g>
<g>
</g>
<g>
</g>
<g>
</g>
<g>
</g>
<g>
</g>
</svg>
